<mxfile host="app.diagrams.net" modified="2023-10-19T12:43:11.694Z" agent="Mozilla/5.0 (Windows NT 10.0; Win64; x64) AppleWebKit/537.36 (KHTML, like Gecko) Chrome/118.0.0.0 Safari/537.36" version="22.0.5" etag="SK21bZRcFI0aTphj7VNn" type="github">
  <diagram name="Seite-1" id="sfMW4fkO0KLeXzCJ6Vdc">
    <mxGraphModel>
      <root>
        <mxCell id="0" />
        <mxCell id="1" parent="0" />
      </root>
    </mxGraphModel>
  </diagram>
</mxfile>
